<?xml version="1.0" encoding="UTF-8"?>
<svg width="251px" height="86px" viewBox="0 0 251 86" version="1.1" xmlns="http://www.w3.org/2000/svg" xmlns:xlink="http://www.w3.org/1999/xlink">
    <!-- Generator: Sketch 46.2 (44496) - http://www.bohemiancoding.com/sketch -->
    <title>Logo Clip</title>
    <desc>Created with Sketch.</desc>
    <defs>
        <polygon id="path-1" points="0.00025 70.94 70.14275 70.94 70.14275 0.85725 0.00025 0.85725"></polygon>
    </defs>
    <g id="Page-1" stroke="none" stroke-width="1" fill="none" fill-rule="evenodd">
        <text id="UOIT-STUDENT-BRANCH" font-family="Verdana-Bold, Verdana" font-size="12" font-weight="bold" fill="#196893">
            <tspan x="78.71875" y="83">UOIT STUDENT BRANCH</tspan>
        </text>
        <g id="Group-3">
            <mask id="mask-2" fill="white">
                <use xlink:href="#path-1"></use>
            </mask>
            <g id="Clip-2"></g>
            <path d="M60.84,37.745 C60.07,38.772 55.219,45.273 49.517,50.949 L49.514,50.952 C43.838,56.654 38.065,60.967 37.039,61.737 L37.021,61.748 C35.956,62.63 34.188,62.592 33.102,61.748 C32.075,60.978 26.033,56.396 20.357,50.694 L20.354,50.691 C14.652,45.015 10.07,38.973 9.3,37.946 L9.302,37.944 C8.42,36.88 8.458,35.112 9.302,34.026 C10.072,32.999 14.654,26.957 20.356,21.281 L20.359,21.278 C26.035,15.576 32.077,10.994 33.104,10.224 C34.19,9.379 35.958,9.342 37.022,10.224 L37.025,10.222 C38.051,10.992 44.093,15.574 49.769,21.276 L49.772,21.279 C55.475,26.955 60.069,33.175 60.838,34.201 L60.84,34.207 C61.722,35.272 61.685,36.659 60.84,37.745 Z M68.822,33.66 C66.245,31.299 58.265,26.101 51.583,19.419 C44.953,12.789 39.666,4.755 37.34,2.178 C35.579,0.417 34.563,0.417 32.802,2.178 C30.474,4.755 25.19,12.789 18.56,19.419 C11.877,26.101 3.897,31.509 1.321,33.66 C-0.44,35.421 -0.44,36.437 1.321,38.198 C3.897,40.493 11.931,45.81 18.561,52.44 C25.244,59.123 30.477,67.103 32.802,69.679 C34.563,71.44 35.579,71.44 37.34,69.679 C39.635,67.103 44.899,59.123 51.582,52.44 C58.211,45.81 66.298,40.318 68.822,38.198 C70.583,36.437 70.583,35.421 68.822,33.66 L68.822,33.66 Z" id="Fill-1" fill="#196893" mask="url(#mask-2)"></path>
        </g>
        <path d="M33.396,41.45 C25.347,41.45 18.837,38.859 18.821,35.663 C18.81,33.47 21.876,31.563 26.419,30.582 L29.877,32.807 C26.338,33.443 23.914,34.739 23.914,36.234 C23.914,38.357 28.801,40.078 34.829,40.078 C40.007,40.078 45.82,38.357 45.82,36.234 C45.794,34.897 44.246,34.122 42.742,33.374 L40.68,33.845 L39.593,30.844 L46.287,32.48 L44.777,32.864 C44.777,32.864 47.331,34.187 47.875,35.663 C48.939,38.882 41.958,41.45 33.396,41.45 Z M31.763,53.023 L32.236,42.088 C32.981,42.213 35.238,42.196 35.985,42.08 L36.481,53.023 C35.242,53.355 32.948,53.297 31.763,53.023 Z M34.015,17.414 L37.886,28.587 L35.304,28.586 L35.785,39.223 C34.498,39.446 33.557,39.401 32.292,39.204 L32.751,28.586 L30.113,28.586 L34.015,17.414 Z M57.984,34.335 C57.269,33.382 53.006,27.61 47.714,22.342 L47.711,22.339 C42.444,17.048 36.837,12.796 35.884,12.081 L35.882,12.083 L35.863,12.064 C34.875,11.245 33.253,11.299 32.245,12.083 C31.293,12.798 25.686,17.05 20.418,22.341 L20.415,22.344 C15.124,27.612 10.872,33.219 10.157,34.172 C9.373,35.179 9.339,36.82 10.157,37.808 L10.156,37.81 C10.87,38.763 15.122,44.37 20.413,49.637 L20.417,49.64 C25.684,54.932 31.291,59.184 32.244,59.898 C33.252,60.682 34.892,60.717 35.88,59.898 L35.897,59.888 C36.85,59.174 42.207,55.172 47.474,49.88 L47.478,49.877 C52.769,44.61 57.271,38.576 57.985,37.623 C58.769,36.615 58.804,35.328 57.985,34.34 L57.984,34.335 L57.984,34.335 Z" id="Fill-4" fill="#196893"></path>
        <path d="M46.149,65.442 L45.645,65.442 L45.645,64.803 L46.044,64.803 C46.259,64.803 46.552,64.825 46.552,65.099 C46.552,65.389 46.403,65.442 46.149,65.442 Z M47.152,65.155 C47.152,64.55 46.752,64.359 46.068,64.359 L45.08,64.359 L45.08,67.003 L45.645,67.003 L45.645,65.891 L45.914,65.891 L46.522,67.003 L47.197,67.003 L46.514,65.843 C46.871,65.813 47.152,65.64 47.152,65.155 Z M46.054,67.571 L46.054,67.564 C45.08,67.571 44.295,66.814 44.295,65.679 C44.295,64.55 45.08,63.799 46.054,63.799 C47.004,63.799 47.814,64.55 47.814,65.679 C47.814,66.814 47.004,67.571 46.054,67.571 Z M46.054,63.226 C44.749,63.226 43.588,64.13 43.588,65.679 C43.588,67.233 44.749,68.14 46.054,68.14 C47.35,68.14 48.513,67.233 48.513,65.679 C48.513,64.13 47.35,63.226 46.054,63.226 L46.054,63.226 Z" id="Fill-5" fill="#196893"></path>
        <polygon id="Fill-6" fill="#196893" points="78.977 63.14 93.665 63.14 93.665 10.117 78.977 10.117"></polygon>
        <polyline id="Fill-7" fill="#196893" points="101.372 63.14 101.372 10.117 141.762 10.117 141.762 20.397 116.059 20.397 116.059 31.338 139.704 31.338 139.704 41.62 116.059 41.62 116.059 52.855 141.762 52.855 141.762 63.14 101.372 63.14"></polyline>
        <polyline id="Fill-8" fill="#196893" points="149.991 63.14 149.991 10.117 190.371 10.117 190.371 20.397 164.675 20.397 164.675 31.338 188.311 31.338 188.311 41.62 164.675 41.62 164.675 52.855 190.371 52.855 190.371 63.14 149.991 63.14"></polyline>
        <polyline id="Fill-9" fill="#196893" points="198.595 63.14 198.595 10.117 238.985 10.117 238.985 20.397 213.291 20.397 213.291 31.338 236.93 31.338 236.93 41.62 213.291 41.62 213.291 52.855 238.985 52.855 238.985 63.14 198.595 63.14"></polyline>
    </g>
</svg>